REM MD5 f560845e0039444f66e23123758ea12b
FILE "Wu-Tang - Taste the Pain (UK) (Demo).bin" BINARY
  TRACK 01 MODE2/2352
    INDEX 01 00:00:00
  TRACK 02 AUDIO
    INDEX 00 04:23:37
    INDEX 01 04:25:37
  TRACK 03 AUDIO
    INDEX 00 07:11:22
    INDEX 01 07:13:22
  TRACK 04 AUDIO
    INDEX 00 07:34:23
    INDEX 01 07:36:23
REM LEADOUT 10:39:23
